<?xml version="1.0" encoding="utf-8"?>
<!-- Generator: Adobe Illustrator 21.1.0, SVG Export Plug-In . SVG Version: 6.00 Build 0)  -->
<svg version="1.1" id="레이어_1" xmlns="http://www.w3.org/2000/svg" xmlns:xlink="http://www.w3.org/1999/xlink" x="0px"
	 y="0px" viewBox="0 0 282 183" style="enable-background:new 0 0 282 183;" xml:space="preserve">
<style type="text/css">
	.st0{clip-path:url(#SVGID_2_);}
	.st1{clip-path:url(#SVGID_4_);fill:#E3E2E2;}
	.st2{fill:none;stroke:#9B9B9B;stroke-width:3;stroke-linecap:round;stroke-linejoin:round;stroke-miterlimit:10;}
	.st3{fill:#9B9B9B;}
</style>
<g>
	<defs>
		<path id="SVGID_1_" d="M13,0h256c7.2,0,13,5.8,13,13v157c0,7.2-5.8,13-13,13H13c-7.2,0-13-5.8-13-13V13C0,5.8,5.8,0,13,0z"/>
	</defs>
	<clipPath id="SVGID_2_">
		<use xlink:href="#SVGID_1_"  style="overflow:visible;"/>
	</clipPath>
	<g class="st0">
		<defs>
			<rect id="SVGID_3_" x="-969" y="-637" width="1920" height="1890"/>
		</defs>
		<clipPath id="SVGID_4_">
			<use xlink:href="#SVGID_3_"  style="overflow:visible;"/>
		</clipPath>
		<rect x="-5" y="-5" class="st1" width="292" height="193"/>
	</g>
</g>
<g>
	<line class="st2" x1="141" y1="58" x2="141" y2="94"/>
	<line class="st2" x1="123" y1="76" x2="159" y2="76"/>
	<path class="st3" d="M85,107.8c0,1.1-0.1,2.1-0.2,3.1c-0.2,1-0.5,1.9-0.9,2.8c-0.4,0.9-1.1,1.7-1.9,2.5c-0.8,0.8-1.8,1.5-3.1,2.1
		l-1.1-1.5c1.1-0.6,2-1.2,2.7-1.8c0.7-0.6,1.2-1.4,1.6-2.1l-4,0.4l-0.3-1.7l4.8-0.3c0.1-0.3,0.1-0.6,0.2-0.9c0-0.3,0.1-0.6,0.1-0.9
		h-4.4v-1.6H85z M90.6,113.4h-1.9v6.9h-2v-13.8h2v5.3h1.9V113.4z M104.2,117v1.6H91.6V117H104.2z M102.8,114.4h-9.7v-6.8h9.6v1.6
		h-7.6v3.6h7.7V114.4z M118,112.7v1.4h-12.5v-1.4H118z M108.8,118.8h8v1.3h-10v-3.3h7.6v-0.7h-7.7v-1.3h9.6v3.3h-7.6V118.8z
		 M114.5,108.1H107v-1.3h9.4v3.3H109v0.7h7.7v1.3H107v-3.3h7.5V108.1z M135.2,112.8v1.6h-12.5v-1.6H135.2z M128.9,115.2
		c0.8,0,1.4,0.1,2,0.2c0.6,0.1,1.1,0.3,1.5,0.5c0.4,0.2,0.7,0.5,1,0.8c0.2,0.3,0.3,0.7,0.3,1.1c0,0.4-0.1,0.8-0.3,1.1
		c-0.2,0.3-0.5,0.6-1,0.8c-0.4,0.2-0.9,0.4-1.5,0.5c-0.6,0.1-1.3,0.2-2,0.2s-1.4-0.1-2-0.2c-0.6-0.1-1.1-0.3-1.5-0.5
		c-0.4-0.2-0.7-0.5-0.9-0.8c-0.2-0.3-0.3-0.7-0.3-1.1c0-0.4,0.1-0.8,0.3-1.1c0.2-0.3,0.5-0.6,0.9-0.8c0.4-0.2,0.9-0.4,1.5-0.5
		C127.4,115.3,128.1,115.2,128.9,115.2z M133.7,111.8h-9.6v-5h9.5v1.6h-7.5v1.8h7.6V111.8z M128.9,118.8c0.9,0,1.6-0.1,2.1-0.2
		c0.5-0.2,0.7-0.4,0.7-0.8c0-0.7-0.9-1-2.8-1c-1.9,0-2.8,0.4-2.8,1c0,0.4,0.2,0.6,0.7,0.8C127.2,118.7,127.9,118.8,128.9,118.8z
		 M149,113.9v1.6h-12.5v-1.6h5.3v-1H138v-3.8h7.5v-0.8H138v-1.5h9.4v3.7H140v0.9h7.8v1.5h-4v1H149z M137.8,116.2h9.7v4h-2v-2.5h-7.7
		V116.2z M154.5,108.6h2.3v1.6h-6.6v-1.6h2.4v-1.7h1.9V108.6z M153.6,110.7c0.4,0,0.8,0.1,1.2,0.2c0.4,0.2,0.7,0.4,1,0.7
		c0.3,0.3,0.5,0.6,0.6,1.1c0.2,0.4,0.2,0.8,0.2,1.3c0,0.5-0.1,0.9-0.2,1.3c-0.2,0.4-0.4,0.7-0.6,1c-0.3,0.3-0.6,0.5-1,0.7
		c-0.4,0.2-0.8,0.2-1.2,0.2c-0.4,0-0.8-0.1-1.2-0.2c-0.4-0.2-0.7-0.4-1-0.7c-0.3-0.3-0.5-0.6-0.6-1c-0.1-0.4-0.2-0.8-0.2-1.3
		c0-0.5,0.1-0.9,0.2-1.3c0.1-0.4,0.4-0.8,0.6-1.1c0.3-0.3,0.6-0.5,1-0.7C152.7,110.8,153.1,110.7,153.6,110.7z M153.6,115.7
		c0.4,0,0.7-0.1,0.9-0.4s0.4-0.7,0.4-1.2c0-0.5-0.1-0.9-0.4-1.2c-0.2-0.3-0.6-0.4-0.9-0.4c-0.4,0-0.7,0.1-0.9,0.4
		c-0.2,0.3-0.4,0.7-0.4,1.2c0,0.5,0.1,0.9,0.4,1.2S153.2,115.7,153.6,115.7z M162.1,106.5v13.8h-1.9v-6.6h-1.1v6h-1.8v-13h1.8v5.4
		h1.1v-5.6H162.1z M176.5,115.7h-5.3v4.6h-2v-4.6h-5.2v-1.6h12.5V115.7z M164.6,111.8c0.7-0.1,1.3-0.2,1.9-0.4
		c0.5-0.2,1-0.4,1.4-0.7c0.4-0.3,0.7-0.6,0.9-0.9c0.2-0.3,0.3-0.7,0.4-1h-4v-1.6h10.2v1.6h-3.9c0,0.3,0.2,0.7,0.4,1
		c0.2,0.3,0.5,0.6,0.9,0.9c0.4,0.3,0.8,0.5,1.4,0.7c0.5,0.2,1.2,0.3,1.9,0.4l-0.7,1.5c-1.2-0.2-2.2-0.5-3.1-1
		c-0.8-0.5-1.5-1.1-1.9-1.8c-0.4,0.7-1,1.3-1.9,1.8c-0.8,0.5-1.9,0.8-3.1,1L164.6,111.8z M182.3,109.9c0,0.6,0,1.1,0.1,1.7
		c0.1,0.6,0.2,1.1,0.4,1.6c0.2,0.5,0.5,1,0.8,1.4c0.3,0.4,0.7,0.8,1.2,1.1l-1.1,1.5c-0.6-0.4-1.1-0.8-1.4-1.4
		c-0.4-0.6-0.7-1.2-0.9-1.9c-0.2,0.8-0.6,1.5-1,2.1c-0.4,0.6-0.9,1.1-1.6,1.5l-1.2-1.5c0.5-0.3,0.9-0.7,1.3-1.1
		c0.3-0.4,0.6-0.9,0.8-1.5c0.2-0.5,0.4-1.1,0.5-1.7c0.1-0.6,0.1-1.2,0.1-1.8v-2.3h1.9V109.9z M185,106.7h1.8v13H185v-6.9h-1.7v-1.6
		h1.7V106.7z M189.7,106.5v13.8h-1.9v-13.8H189.7z M204.2,117.1v1.6h-12.5v-1.6h2.8v-3.4c-0.5-0.3-0.9-0.7-1.2-1.2
		c-0.3-0.5-0.4-1-0.4-1.6c0-0.6,0.1-1.1,0.4-1.5c0.3-0.5,0.6-0.8,1.1-1.2c0.5-0.3,1-0.6,1.6-0.8c0.6-0.2,1.3-0.3,2.1-0.3
		c0.8,0,1.4,0.1,2.1,0.3c0.6,0.2,1.2,0.4,1.6,0.8c0.5,0.3,0.8,0.7,1.1,1.2c0.3,0.5,0.4,1,0.4,1.5c0,0.6-0.1,1.1-0.4,1.6
		c-0.3,0.5-0.7,0.9-1.2,1.2v3.4H204.2z M197.9,108.7c-1,0-1.7,0.2-2.3,0.6c-0.6,0.4-0.9,0.9-0.9,1.6c0,0.3,0.1,0.6,0.2,0.9
		c0.2,0.3,0.4,0.5,0.6,0.7c0.3,0.2,0.6,0.3,1,0.4c0.4,0.1,0.8,0.1,1.3,0.1c0.5,0,0.9,0,1.3-0.1c0.4-0.1,0.7-0.2,1-0.4
		c0.3-0.2,0.5-0.4,0.7-0.7c0.2-0.3,0.2-0.6,0.2-0.9c0-0.3-0.1-0.6-0.2-0.9c-0.2-0.3-0.4-0.5-0.7-0.7c-0.3-0.2-0.6-0.3-1-0.4
		C198.8,108.8,198.4,108.7,197.9,108.7z M196.4,117.1h3v-2.6c-0.5,0.1-1,0.1-1.5,0.1c-0.5,0-1,0-1.5-0.1V117.1z"/>
</g>
</svg>
